<?xml version="1.0" standalone="no"?>
<!DOCTYPE svg PUBLIC "-//W3C//DTD SVG 20010904//EN"
 "http://www.w3.org/TR/2001/REC-SVG-20010904/DTD/svg10.dtd">
<svg version="1.0" xmlns="http://www.w3.org/2000/svg"
 width="180.000000pt" height="180.000000pt" viewBox="0 0 180.000000 180.000000"
 preserveAspectRatio="xMidYMid meet">

<g transform="translate(0.000000,180.000000) scale(0.100000,-0.100000)"
fill="#000000" stroke="none">
<path d="M105 1781 c-48 -22 -69 -44 -90 -94 -13 -32 -15 -134 -15 -789 0
-709 2 -755 19 -793 22 -48 44 -69 94 -90 32 -13 134 -15 789 -15 709 0 755 2
793 19 48 22 69 44 90 94 13 32 15 134 15 787 0 653 -2 755 -15 787 -21 50
-42 72 -90 94 -38 18 -84 19 -795 19 -711 0 -757 -1 -795 -19z m550 -647 c23
-35 5 -54 -51 -54 l-44 0 0 -178 c0 -125 4 -182 12 -190 7 -7 8 -15 3 -20 -15
-13 -117 -53 -122 -48 -3 2 2 15 11 28 12 18 16 64 18 216 l3 194 -25 -5 c-14
-2 -33 -7 -42 -11 -12 -5 -22 0 -34 19 -17 26 -17 28 1 41 13 10 50 14 121 14
58 0 106 4 109 10 10 16 22 12 40 -16z m665 0 c0 -3 -11 -19 -25 -36 -17 -20
-25 -42 -25 -69 0 -43 3 -45 40 -24 34 20 46 18 70 -7 18 -19 20 -35 20 -138
0 -87 4 -121 15 -136 20 -27 19 -29 -19 -49 -57 -31 -66 -14 -66 121 0 126 -9
164 -40 164 -19 0 -20 -6 -20 -114 0 -90 3 -118 16 -130 14 -14 12 -18 -18
-36 -41 -25 -43 -25 -62 2 -13 18 -16 54 -16 188 0 119 -4 170 -12 179 -8 8
-9 15 -3 17 6 3 37 20 70 39 60 34 75 40 75 29z m-596 -130 c13 -12 16 -40 16
-138 0 -129 9 -156 45 -142 22 8 22 218 0 236 -18 15 -12 26 26 46 51 26 59 9
59 -122 0 -108 10 -161 32 -175 5 -3 -6 -16 -26 -28 -28 -18 -39 -20 -56 -11
-11 6 -20 15 -20 21 0 5 -18 0 -41 -12 l-41 -20 -24 22 c-23 21 -24 29 -24
140 0 107 -2 120 -21 138 l-21 19 38 21 c22 11 40 20 41 21 1 0 9 -7 17 -16z
m378 -23 l25 -39 -34 -16 c-43 -20 -40 -21 -59 16 -15 28 -17 30 -26 14 -10
-17 -6 -92 5 -102 2 -3 23 3 47 12 38 15 43 15 58 1 20 -21 29 -131 12 -152
-6 -8 -35 -23 -63 -34 -29 -10 -60 -22 -69 -26 -13 -5 -22 2 -35 29 -9 20 -20
36 -25 36 -19 0 -6 21 22 35 40 21 44 20 63 -21 10 -19 22 -32 27 -29 11 7 14
108 4 118 -3 3 -26 -2 -50 -11 -58 -21 -67 -11 -72 77 l-4 68 36 17 c52 25
100 45 107 46 3 0 17 -17 31 -39z"/>
</g>
</svg>
