<?xml version="1.0" encoding="UTF-8"?>
<svg version="1.1" xmlns="http://www.w3.org/2000/svg" width="180" height="180">
<path d="M0 0 C59.4 0 118.8 0 180 0 C180 59.4 180 118.8 180 180 C120.6 180 61.2 180 0 180 C0 120.6 0 61.2 0 0 Z " fill="#000000" transform="translate(0,0)"/>
<path d="M0 0 C-1.20381448 2.49361571 -2.45428722 4.68143083 -4 7 C-4.45139459 9.0492094 -4.45139459 9.0492094 -4.625 11.1875 C-4.74875 12.445625 -4.8725 13.70375 -5 15 C-4.113125 14.484375 -3.22625 13.96875 -2.3125 13.4375 C1.2102641 11.90875332 2.47445321 11.62895402 6 13 C8.25125878 16.37688818 8.27010443 17.65661286 8.34375 21.62109375 C8.37339844 22.72130859 8.40304688 23.82152344 8.43359375 24.95507812 C8.45550781 26.10427734 8.47742188 27.25347656 8.5 28.4375 C8.54342727 30.70721338 8.5951686 32.97678684 8.65625 35.24609375 C8.68428711 36.75707642 8.68428711 36.75707642 8.71289062 38.29858398 C9.00074804 41.00703836 9.61599898 42.67986456 11 45 C6.5862069 48.0651341 6.5862069 48.0651341 3.75 47.75 C2 47 2 47 1 46 C0.85423571 44.17137201 0.77270998 42.33754086 0.71875 40.50390625 C0.68136719 39.38822266 0.64398438 38.27253906 0.60546875 37.12304688 C0.55326172 35.36057617 0.55326172 35.36057617 0.5 33.5625 C0.43130893 31.25117264 0.35859629 28.93996017 0.28125 26.62890625 C0.25095703 25.59838135 0.22066406 24.56785645 0.18945312 23.50610352 C0.15923385 21.0030362 0.15923385 21.0030362 -1 19 C-3.02463255 18.34786708 -3.02463255 18.34786708 -5 18 C-4.96970703 18.70608398 -4.93941406 19.41216797 -4.90820312 20.13964844 C-4.77126008 23.34306223 -4.63561602 26.54652976 -4.5 29.75 C-4.45230469 30.86117187 -4.40460938 31.97234375 -4.35546875 33.1171875 C-4.31035156 34.18710938 -4.26523438 35.25703125 -4.21875 36.359375 C-4.1559082 37.83615723 -4.1559082 37.83615723 -4.09179688 39.34277344 C-4.01517484 41.56073681 -4 43.78071352 -4 46 C-5.98 46.66 -7.96 47.32 -10 48 C-11.47021484 46.99023438 -11.47021484 46.99023438 -13 45 C-13.31917209 42.31341665 -13.46475021 39.8459421 -13.4765625 37.15625 C-13.49214203 36.39074829 -13.50772156 35.62524658 -13.52377319 34.83654785 C-13.57129111 32.39104238 -13.59904709 29.94582136 -13.625 27.5 C-13.6615233 25.05438076 -13.70218942 22.60892146 -13.74765015 20.16345215 C-13.77480921 18.64214415 -13.79618978 17.12071965 -13.81118774 15.59924316 C-13.85762164 12.47345374 -14.0041337 9.98759891 -15 7 C-12.87767021 5.82823482 -10.75242209 4.66245215 -8.625 3.5 C-7.72007813 2.99919922 -7.72007813 2.99919922 -6.796875 2.48828125 C-2.2265625 0 -2.2265625 0 0 0 Z " fill="#EEEEEE" transform="translate(132,66)"/>
<path d="M0 0 C1.75 0.8125 1.75 0.8125 2.75 2.8125 C2.90344209 4.69722859 2.99959571 6.58677874 3.06640625 8.4765625 C3.12924805 10.15878906 3.12924805 10.15878906 3.19335938 11.875 C3.23267578 13.050625 3.27199219 14.22625 3.3125 15.4375 C3.35568359 16.62085937 3.39886719 17.80421875 3.44335938 19.0234375 C3.54967426 21.95300328 3.65170642 24.88265588 3.75 27.8125 C5.07 28.1425 6.39 28.4725 7.75 28.8125 C8.08 21.2225 8.41 13.6325 8.75 5.8125 C7.76 5.4825 6.77 5.1525 5.75 4.8125 C5.75 4.1525 5.75 3.4925 5.75 2.8125 C9.0625 1.1875 9.0625 1.1875 12.75 -0.1875 C13.74 0.4725 14.73 1.1325 15.75 1.8125 C16.13476562 4.36279297 16.13476562 4.36279297 16.15625 7.5546875 C16.17816406 8.70324219 16.20007813 9.85179688 16.22265625 11.03515625 C16.23167969 12.24042969 16.24070312 13.44570312 16.25 14.6875 C16.26787701 17.06003429 16.29859107 19.43251566 16.34375 21.8046875 C16.35083984 22.86026855 16.35792969 23.91584961 16.36523438 25.00341797 C16.79353446 28.13033474 17.65406229 29.50349842 19.75 31.8125 C17.0625 33.9375 17.0625 33.9375 13.75 35.8125 C10.875 35.0625 10.875 35.0625 8.75 33.8125 C8.75 33.1525 8.75 32.4925 8.75 31.8125 C7.6775 32.51375 6.605 33.215 5.5 33.9375 C2.07762162 35.90104638 2.07762162 35.90104638 -0.5625 35.1875 C-4.1998329 32.22374726 -4.1998329 32.22374726 -4.56884766 29.19873047 C-4.60026855 28.11994629 -4.63168945 27.04116211 -4.6640625 25.9296875 C-4.70273438 24.76308594 -4.74140625 23.59648438 -4.78125 22.39453125 C-4.8121875 21.17121094 -4.843125 19.94789062 -4.875 18.6875 C-4.91367188 17.45644531 -4.95234375 16.22539063 -4.9921875 14.95703125 C-5.0866999 11.90900624 -5.17225494 8.86099138 -5.25 5.8125 C-5.91 5.8125 -6.57 5.8125 -7.25 5.8125 C-7.25 4.8225 -7.25 3.8325 -7.25 2.8125 C-4.74280976 0.86246314 -3.2262116 -0.26885097 0 0 Z " fill="#F8F8F8" transform="translate(71.25,78.1875)"/>
<path d="M0 0 C0.99 0.33 1.98 0.66 3 1 C4.1875 3.5625 4.1875 3.5625 5 6 C3 8 3 8 0.8359375 8.1953125 C-0.38222656 8.16050781 -0.38222656 8.16050781 -1.625 8.125 C-2.44226563 8.10695313 -3.25953125 8.08890625 -4.1015625 8.0703125 C-4.72804688 8.04710938 -5.35453125 8.02390625 -6 8 C-5.88175936 13.07218134 -5.75751147 18.1441664 -5.62768555 23.21606445 C-5.58436438 24.94160965 -5.54268727 26.66719693 -5.50268555 28.39282227 C-5.44491474 30.87268764 -5.38123997 33.35234172 -5.31640625 35.83203125 C-5.29969376 36.60400345 -5.28298126 37.37597565 -5.26576233 38.17134094 C-5.17772105 41.35182933 -5.01254805 43.96235584 -4 47 C-5.78953185 47.83790789 -7.58169695 48.67019396 -9.375 49.5 C-10.37273438 49.9640625 -11.37046875 50.428125 -12.3984375 50.90625 C-15 52 -15 52 -17 52 C-16.67781494 51.3512793 -16.35562988 50.70255859 -16.02368164 50.03417969 C-14.71787404 46.16378214 -14.66464794 42.49263891 -14.62109375 38.453125 C-14.60409927 37.64131775 -14.5871048 36.8295105 -14.56959534 35.99310303 C-14.5166575 33.41214668 -14.47623011 30.83120557 -14.4375 28.25 C-14.3935954 25.65459014 -14.34697657 23.05930523 -14.29469299 20.46405029 C-14.26268631 18.85155665 -14.23581171 17.23895169 -14.21446228 15.62628174 C-14.11179281 10.11179281 -14.11179281 10.11179281 -13 9 C-13.9075 9 -14.815 9 -15.75 9 C-18.16666667 9 -20.58333333 9 -23 9 C-23.66 7.35 -24.32 5.7 -25 4 C-22.52663644 1.52663644 -21.69379626 1.72091522 -18.28125 1.62109375 C-17.34925781 1.58693359 -16.41726562 1.55277344 -15.45703125 1.51757812 C-14.48121094 1.49115234 -13.50539063 1.46472656 -12.5 1.4375 C-10.57278918 1.37767245 -8.64569109 1.3140564 -6.71875 1.24609375 C-5.43387695 1.21020142 -5.43387695 1.21020142 -4.12304688 1.17358398 C-1.94610269 1.12840116 -1.94610269 1.12840116 0 0 Z " fill="#F1F1F1" transform="translate(62,64)"/>
<path d="M0 0 C1.75 2.375 1.75 2.375 3 5 C2.67 5.99 2.34 6.98 2 8 C-1.0625 9.1875 -1.0625 9.1875 -4 10 C-4.99 8.35 -5.98 6.7 -7 5 C-7.33 8.63 -7.66 12.26 -8 16 C-6.9275 15.484375 -5.855 14.96875 -4.75 14.4375 C-2.43829918 13.45210834 -1.22621753 12.98777203 1.3125 13.125 C3 14 3 14 5 17 C5.37109375 19.8125 5.37109375 19.8125 5.4375 23 C5.47746094 24.051875 5.51742187 25.10375 5.55859375 26.1875 C5 29 5 29 2.76171875 30.734375 C1.85035156 31.15203125 0.93898438 31.5696875 0 32 C-0.77601562 32.39703125 -1.55203125 32.7940625 -2.3515625 33.203125 C-3.10179688 33.54859375 -3.85203125 33.8940625 -4.625 34.25 C-5.75808594 34.78367187 -5.75808594 34.78367187 -6.9140625 35.328125 C-9 36 -9 36 -12 35 C-13.1875 31.9375 -13.1875 31.9375 -14 29 C-14.66 29 -15.32 29 -16 29 C-16 28.01 -16 27.02 -16 26 C-12.91190305 24.23537317 -11.76687864 24 -8 24 C-7.01 25.98 -6.02 27.96 -5 30 C-4.67 30 -4.34 30 -4 30 C-3.67 26.37 -3.34 22.74 -3 19 C-4.5778125 19.5259375 -4.5778125 19.5259375 -6.1875 20.0625 C-9.7864431 20.94748601 -11.56246098 21.21324906 -15 20 C-16.44207941 17.11584117 -16.09394887 14.58278472 -16.0625 11.375 C-16.05347656 10.18648437 -16.04445313 8.99796875 -16.03515625 7.7734375 C-16.02355469 6.85820313 -16.01195313 5.94296875 -16 5 C-3.7639569 -1.2546523 -3.7639569 -1.2546523 0 0 Z " fill="#F1F1F1" transform="translate(109,79)"/>
<path d="M0 0 C2.25125878 3.37688818 2.27010443 4.65661286 2.34375 8.62109375 C2.37339844 9.72130859 2.40304688 10.82152344 2.43359375 11.95507812 C2.45550781 13.10427734 2.47742188 14.25347656 2.5 15.4375 C2.54342727 17.70721338 2.5951686 19.97678684 2.65625 22.24609375 C2.67494141 23.25341553 2.69363281 24.2607373 2.71289062 25.29858398 C3.00074804 28.00703836 3.61599898 29.67986456 5 32 C0.5862069 35.0651341 0.5862069 35.0651341 -2.25 34.75 C-4 34 -4 34 -5 33 C-5.109288 31.20549474 -5.15585437 29.40709464 -5.17578125 27.609375 C-5.19962891 26.50722656 -5.22347656 25.40507813 -5.24804688 24.26953125 C-5.29072616 21.93898336 -5.32213274 19.60819946 -5.34179688 17.27734375 C-5.42473895 10.64990218 -5.42473895 10.64990218 -8.04296875 4.703125 C-9.01169922 3.86007813 -9.01169922 3.86007813 -10 3 C-6.56508485 -0.59104765 -4.92377149 -1.47713145 0 0 Z " fill="#FAFAFA" transform="translate(138,79)"/>
<path d="M0 0 C1.75 2.375 1.75 2.375 3 5 C2.67 5.99 2.34 6.98 2 8 C-1.0625 9.1875 -1.0625 9.1875 -4 10 C-4.99 8.35 -5.98 6.7 -7 5 C-7.33 8.63 -7.66 12.26 -8 16 C-8.33 16 -8.66 16 -9 16 C-9.02693575 13.87506859 -9.04636628 11.75004088 -9.0625 9.625 C-9.07410156 8.44164063 -9.08570312 7.25828125 -9.09765625 6.0390625 C-9 3 -9 3 -8 1 C-3.6 -1.2 -3.6 -1.2 0 0 Z " fill="#E4E4E4" transform="translate(109,79)"/>
<path d="M0 0 C0 3.63 0 7.26 0 11 C-0.99 11 -1.98 11 -3 11 C-3.66 9.02 -4.32 7.04 -5 5 C-5.99 5 -6.98 5 -8 5 C-7.625 3.0625 -7.625 3.0625 -7 1 C-5 0 -5 0 0 0 Z " fill="#0C0C0C" transform="translate(106,98)"/>
</svg>
